<?xml version="1.0" encoding="UTF-8" standalone="no"?>
<!DOCTYPE svg PUBLIC "-//W3C//DTD SVG 1.1//EN" "http://www.w3.org/Graphics/SVG/1.1/DTD/svg11.dtd">
<svg width="100%" height="100%" viewBox="0 0 812 464" version="1.1" xmlns="http://www.w3.org/2000/svg" xmlns:xlink="http://www.w3.org/1999/xlink" xml:space="preserve" xmlns:serif="http://www.serif.com/" style="fill-rule:evenodd;clip-rule:evenodd;stroke-linecap:round;stroke-linejoin:round;stroke-miterlimit:1.5;">
    <g id="architecture" transform="matrix(1,0,0,1,-4.82198,-80.8535)">
        <rect x="4.822" y="80.853" width="812" height="464" style="fill:none;"/>
        <g id="background-canvas" serif:id="background canvas" transform="matrix(0.798152,0,0,0.654355,2.35779,78.3875)">
            <path d="M1015.64,24.715C1015.64,17.011 1010.52,10.757 1004.2,10.757L19.052,10.757C12.736,10.757 7.609,17.011 7.609,24.715L7.609,694.67C7.609,702.374 12.736,708.628 19.052,708.628L1004.2,708.628C1010.52,708.628 1015.64,702.374 1015.64,694.67L1015.64,24.715Z" style="fill:rgb(255,244,210);"/>
        </g>
        <g id="browser-window-frame" serif:id="browser window frame" transform="matrix(0.786988,0,0,0.633052,6.23575,87.8689)">
            <rect x="20.108" y="20.682" width="480.517" height="660.452" style="fill:none;stroke:rgb(51,49,59);stroke-width:1.4px;"/>
        </g>
        <g id="web-worker-frame" serif:id="web worker frame" transform="matrix(0.794852,0,0,0.635579,7.53091,87.5001)">
            <rect x="520.618" y="21.372" width="479.828" height="657.695" style="fill:none;stroke:rgb(28,28,28);stroke-width:1.39px;"/>
        </g>
        <g id="comp-context" transform="matrix(1,0,0,1,0.821978,0.853458)">
            <g transform="matrix(3.36842,0,0,1,-473.45,357.797)">
                <rect x="154.37" y="93.763" width="94.564" height="42.582" style="fill:rgb(255,244,210);stroke:rgb(51,49,59);stroke-width:0.4px;stroke-linejoin:miter;stroke-miterlimit:1.25;stroke-dasharray:0.8,0.8,0,0,0,0;"/>
            </g>
            <g transform="matrix(3.64327,0,0,1,-527.493,345.63)">
                <rect x="154.37" y="93.763" width="94.564" height="42.582" style="fill:rgb(255,244,210);stroke:rgb(51,49,59);stroke-width:0.37px;stroke-linejoin:miter;stroke-miterlimit:1.25;stroke-dasharray:0.75,0.75,0,0,0,0;"/>
            </g>
            <g transform="matrix(3.81871,0,0,7.35065,-560.659,-532.413)">
                <rect x="154.37" y="93.763" width="94.564" height="42.582" style="fill:rgb(255,244,210);stroke:rgb(51,49,59);stroke-width:0.17px;stroke-linejoin:miter;stroke-miterlimit:1.25;stroke-dasharray:0.34,0.34,0,0,0,0;"/>
            </g>
            <g transform="matrix(1,0,0,1,8.84814,42.5817)">
                <rect x="154.37" y="93.763" width="94.564" height="42.582" style="fill:rgb(255,244,210);stroke:rgb(51,49,59);stroke-width:1px;stroke-linejoin:miter;stroke-miterlimit:1.25;stroke-dasharray:2,2,0,0,0,0;"/>
            </g>
            <g transform="matrix(1,0,0,1,-4.97708,-76.3152)">
                <text x="193.374px" y="226.485px" style="font-family:'BlexMonoSmBldNF', 'BlexMonoSmBld Nerd Font', monospace;font-weight:600;font-size:8px;fill:rgb(51,49,59);">Component</text>
                <g transform="matrix(14,0,0,14,244.374,242.485)">
                </g>
                <text x="185.574px" y="242.485px" style="font-family:'BlexMonoSmBldNF', 'BlexMonoSmBld Nerd Font', monospace;font-weight:600;font-size:14px;fill:rgb(51,49,59);">Context</text>
            </g>
        </g>
        <g id="entities-kernel" transform="matrix(1,0,0,1,402.306,0.853458)">
            <g transform="matrix(3.81871,0,0,7.35065,-560.659,-532.413)">
                <rect x="154.37" y="93.763" width="94.564" height="42.582" style="fill:rgb(255,244,210);stroke:rgb(51,49,59);stroke-width:0.17px;stroke-linejoin:miter;stroke-miterlimit:1.25;stroke-dasharray:0.34,0.34,0,0,0,0;"/>
            </g>
            <g transform="matrix(1,0,0,1,8.84814,42.5817)">
                <rect x="154.37" y="93.763" width="94.564" height="42.582" style="fill:rgb(255,244,210);stroke:rgb(51,49,59);stroke-width:1px;stroke-linejoin:miter;stroke-miterlimit:1.25;stroke-dasharray:2,2,0,0,0,0;"/>
            </g>
            <g transform="matrix(1,0,0,1,-4.97708,-76.3152)">
                <text x="200.574px" y="226.485px" style="font-family:'BlexMonoSmBldNF', 'BlexMonoSmBld Nerd Font', monospace;font-weight:600;font-size:8px;fill:rgb(51,49,59);">entity</text>
                <g transform="matrix(14,0,0,14,240.174,242.485)">
                </g>
                <text x="189.774px" y="242.485px" style="font-family:'BlexMonoSmBldNF', 'BlexMonoSmBld Nerd Font', monospace;font-weight:600;font-size:14px;fill:rgb(51,49,59);">Kernel</text>
            </g>
        </g>
        <g transform="matrix(1,0,0,1,26.4034,79.6545)">
            <g transform="matrix(9,0,0,9,570.886,119.097)">
            </g>
            <text x="538.486px" y="119.097px" style="font-family:'BlexMonoSmBldNF', 'BlexMonoSmBld Nerd Font', monospace;font-weight:600;font-size:9px;fill:rgb(143,117,40);">Entity</text>
        </g>
        <g transform="matrix(1,0,0,1,-92.694,179.568)">
            <g transform="matrix(9,0,0,9,570.886,119.097)">
            </g>
            <text x="538.486px" y="119.097px" style="font-family:'BlexMonoSmBldNF', 'BlexMonoSmBld Nerd Font', monospace;font-weight:600;font-size:9px;fill:rgb(143,117,40);">Entity</text>
        </g>
        <g transform="matrix(1,0,0,1,27.6023,179.568)">
            <g transform="matrix(9,0,0,9,570.886,119.097)">
            </g>
            <text x="538.486px" y="119.097px" style="font-family:'BlexMonoSmBldNF', 'BlexMonoSmBld Nerd Font', monospace;font-weight:600;font-size:9px;fill:rgb(143,117,40);">Entity</text>
        </g>
        <g transform="matrix(1,0,0,1,145.9,179.968)">
            <g transform="matrix(9,0,0,9,570.886,119.097)">
            </g>
            <text x="538.486px" y="119.097px" style="font-family:'BlexMonoSmBldNF', 'BlexMonoSmBld Nerd Font', monospace;font-weight:600;font-size:9px;fill:rgb(143,117,40);">Entity</text>
        </g>
        <g transform="matrix(1,0,0,1,-94.6922,260.698)">
            <g transform="matrix(9,0,0,9,570.886,119.097)">
            </g>
            <text x="538.486px" y="119.097px" style="font-family:'BlexMonoSmBldNF', 'BlexMonoSmBld Nerd Font', monospace;font-weight:600;font-size:9px;fill:rgb(143,117,40);">Entity</text>
        </g>
        <g id="component" transform="matrix(1,0,0,1,0.821978,0.853458)">
            <g transform="matrix(1,0,0,1,-0.882622,-1.17683)">
                <path d="M259.332,204.926C259.332,203.309 258.019,201.996 256.402,201.996L163.677,201.996C162.06,201.996 160.747,203.309 160.747,204.926L160.747,257.666C160.747,259.283 162.06,260.596 163.677,260.596L256.402,260.596C258.019,260.596 259.332,259.283 259.332,257.666L259.332,204.926Z" style="fill:rgb(255,232,164);"/>
            </g>
            <g transform="matrix(1,0,0,1,-15.7729,3.75765)">
                <g transform="matrix(9,0,0,9,268.974,226.485)">
                </g>
                <text x="182.574px" y="226.485px" style="font-family:'BlexMonoSmBldNF', 'BlexMonoSmBld Nerd Font', monospace;font-weight:600;font-size:9px;fill:rgb(51,49,59);">&lt;view-component&gt;</text>
            </g>
        </g>
        <g id="component1" serif:id="component" transform="matrix(0.673837,0,0,0.610218,470.625,88.1852)">
            <g transform="matrix(1,0,0,1,-0.882622,-1.17683)">
                <path d="M259.332,204.926C259.332,203.309 258.143,201.996 256.679,201.996L163.4,201.996C161.936,201.996 160.747,203.309 160.747,204.926L160.747,257.666C160.747,259.283 161.936,260.596 163.4,260.596L256.679,260.596C258.143,260.596 259.332,259.283 259.332,257.666L259.332,204.926Z" style="fill:rgb(255,232,164);"/>
            </g>
            <g transform="matrix(1,0,0,1,-20.3322,5.91051)">
                <g transform="matrix(13.1101,0,0,13.1101,276.966,226.485)">
                </g>
                <text x="182.574px" y="226.485px" style="font-family:'BlexMonoSmBldNF', 'BlexMonoSmBld Nerd Font', monospace;font-weight:600;font-size:13.11px;fill:rgb(51,49,59);">ShadowObject</text>
            </g>
        </g>
        <g transform="matrix(0.381802,0,0,0.594434,387.951,192.15)">
            <g id="component2" serif:id="component">
                <path d="M259.332,204.926C259.332,203.309 257.288,201.996 254.77,201.996L165.309,201.996C162.791,201.996 160.747,203.309 160.747,204.926L160.747,257.666C160.747,259.283 162.791,260.596 165.309,260.596L254.77,260.596C257.288,260.596 259.332,259.283 259.332,257.666L259.332,204.926Z" style="fill:rgb(255,232,164);"/>
            </g>
        </g>
        <g transform="matrix(0.381802,0,0,0.594434,432.964,192.15)">
            <g id="component3" serif:id="component">
                <path d="M259.332,204.926C259.332,203.309 257.288,201.996 254.77,201.996L165.309,201.996C162.791,201.996 160.747,203.309 160.747,204.926L160.747,257.666C160.747,259.283 162.791,260.596 165.309,260.596L254.77,260.596C257.288,260.596 259.332,259.283 259.332,257.666L259.332,204.926Z" style="fill:rgb(255,232,164);"/>
            </g>
        </g>
        <g id="component4" serif:id="component" transform="matrix(0.673837,0,0,0.610218,348.698,271.337)">
            <g transform="matrix(1,0,0,1,-0.882622,-1.17683)">
                <path d="M259.332,204.926C259.332,203.309 258.143,201.996 256.679,201.996L163.4,201.996C161.936,201.996 160.747,203.309 160.747,204.926L160.747,257.666C160.747,259.283 161.936,260.596 163.4,260.596L256.679,260.596C258.143,260.596 259.332,259.283 259.332,257.666L259.332,204.926Z" style="fill:rgb(255,232,164);"/>
            </g>
            <g transform="matrix(1,0,0,1,-21.9651,4.92669)">
                <g transform="matrix(13.1101,0,0,13.1101,276.966,226.485)">
                </g>
                <text x="182.574px" y="226.485px" style="font-family:'BlexMonoSmBldNF', 'BlexMonoSmBld Nerd Font', monospace;font-weight:600;font-size:13.11px;fill:rgb(51,49,59);">ShadowObject</text>
            </g>
        </g>
        <g id="component5" serif:id="component" transform="matrix(0.405879,0,0,0.367558,621.542,226.828)">
            <g transform="matrix(1,0,0,1,5.02538,16.2204)">
                <path d="M259.332,204.926C259.332,203.309 258.143,201.996 256.679,201.996L163.4,201.996C161.936,201.996 160.747,203.309 160.747,204.926L160.747,257.666C160.747,259.283 161.936,260.596 163.4,260.596L256.679,260.596C258.143,260.596 259.332,259.283 259.332,257.666L259.332,204.926Z" style="fill:rgb(255,232,164);"/>
            </g>
            <g transform="matrix(1,0,0,1,-4.5866,19.2845)">
                <text x="182.574px" y="226.485px" style="font-family:'BlexMonoSmBldNF', 'BlexMonoSmBld Nerd Font', monospace;font-weight:600;font-size:21.765px;fill:rgb(51,49,59);">Shadow</text>
                <g transform="matrix(21.7652,0,0,21.7652,260.929,248.25)">
                </g>
                <text x="182.574px" y="248.25px" style="font-family:'BlexMonoSmBldNF', 'BlexMonoSmBld Nerd Font', monospace;font-weight:600;font-size:21.765px;fill:rgb(51,49,59);">Object</text>
            </g>
            <g transform="matrix(1,0,0,1,-600.274,36.4265)">
                <text x="182.574px" y="226.485px" style="font-family:'BlexMonoSmBldNF', 'BlexMonoSmBld Nerd Font', monospace;font-weight:600;font-size:21.765px;fill:rgb(51,49,59);">Shadow</text>
                <g transform="matrix(21.7652,0,0,21.7652,260.929,248.25)">
                </g>
                <text x="182.574px" y="248.25px" style="font-family:'BlexMonoSmBldNF', 'BlexMonoSmBld Nerd Font', monospace;font-weight:600;font-size:21.765px;fill:rgb(51,49,59);">Object</text>
            </g>
            <g transform="matrix(1,0,0,1,-488.851,35.5658)">
                <text x="182.574px" y="226.485px" style="font-family:'BlexMonoSmBldNF', 'BlexMonoSmBld Nerd Font', monospace;font-weight:600;font-size:21.765px;fill:rgb(51,49,59);">Shadow</text>
                <g transform="matrix(21.7652,0,0,21.7652,260.929,248.25)">
                </g>
                <text x="182.574px" y="248.25px" style="font-family:'BlexMonoSmBldNF', 'BlexMonoSmBld Nerd Font', monospace;font-weight:600;font-size:21.765px;fill:rgb(51,49,59);">Object</text>
            </g>
        </g>
        <g id="component6" serif:id="component" transform="matrix(0.405879,0,0,0.367558,624.129,257.968)">
            <g transform="matrix(1,0,0,1,-0.882622,-1.17683)">
                <path d="M259.332,204.926C259.332,203.309 258.143,201.996 256.679,201.996L163.4,201.996C161.936,201.996 160.747,203.309 160.747,204.926L160.747,257.666C160.747,259.283 161.936,260.596 163.4,260.596L256.679,260.596C258.143,260.596 259.332,259.283 259.332,257.666L259.332,204.926Z" style="fill:rgb(255,232,164);"/>
            </g>
            <g transform="matrix(1,0,0,1,-11.4793,-2.46203)">
                <text x="182.574px" y="226.485px" style="font-family:'BlexMonoSmBldNF', 'BlexMonoSmBld Nerd Font', monospace;font-weight:600;font-size:21.765px;fill:rgb(51,49,59);">Shadow</text>
                <g transform="matrix(21.7652,0,0,21.7652,260.929,248.25)">
                </g>
                <text x="182.574px" y="248.25px" style="font-family:'BlexMonoSmBldNF', 'BlexMonoSmBld Nerd Font', monospace;font-weight:600;font-size:21.765px;fill:rgb(51,49,59);">Object</text>
            </g>
        </g>
        <g id="component7" serif:id="component" transform="matrix(0.405879,0,0,0.367558,670.063,234.316)">
            <g transform="matrix(1,0,0,1,-0.882622,-1.17683)">
                <path d="M259.332,204.926C259.332,203.309 258.143,201.996 256.679,201.996L163.4,201.996C161.936,201.996 160.747,203.309 160.747,204.926L160.747,257.666C160.747,259.283 161.936,260.596 163.4,260.596L256.679,260.596C258.143,260.596 259.332,259.283 259.332,257.666L259.332,204.926Z" style="fill:rgb(255,232,164);"/>
            </g>
            <g transform="matrix(1,0,0,1,-12.4639,-2.46203)">
                <text x="182.574px" y="226.485px" style="font-family:'BlexMonoSmBldNF', 'BlexMonoSmBld Nerd Font', monospace;font-weight:600;font-size:21.765px;fill:rgb(51,49,59);">Shadow</text>
                <g transform="matrix(21.7652,0,0,21.7652,260.929,248.25)">
                </g>
                <text x="182.574px" y="248.25px" style="font-family:'BlexMonoSmBldNF', 'BlexMonoSmBld Nerd Font', monospace;font-weight:600;font-size:21.765px;fill:rgb(51,49,59);">Object</text>
            </g>
        </g>
        <g id="component8" serif:id="component" transform="matrix(1,0,0,1,0.821978,0.853458)">
            <g transform="matrix(1,0,0,1,-0.882622,97.971)">
                <path d="M259.332,204.926C259.332,203.309 258.019,201.996 256.402,201.996L163.677,201.996C162.06,201.996 160.747,203.309 160.747,204.926L160.747,257.666C160.747,259.283 162.06,260.596 163.677,260.596L256.402,260.596C258.019,260.596 259.332,259.283 259.332,257.666L259.332,204.926Z" style="fill:rgb(255,232,164);"/>
            </g>
            <g transform="matrix(1,0,0,1,-15.9206,101.6)">
                <g transform="matrix(9,0,0,9,268.974,226.485)">
                </g>
                <text x="182.574px" y="226.485px" style="font-family:'BlexMonoSmBldNF', 'BlexMonoSmBld Nerd Font', monospace;font-weight:600;font-size:9px;fill:rgb(51,49,59);">&lt;view-component&gt;</text>
            </g>
        </g>
        <g transform="matrix(1,0,0,1,401.424,99.2182)">
            <g id="component9" serif:id="component">
                <path d="M260.934,208.223C260.934,209.107 260.216,209.825 259.332,209.825C258.448,209.825 257.73,209.107 257.73,208.223L257.73,204.926C257.73,204.194 257.135,203.599 256.402,203.599L253.091,203.599C252.206,203.599 251.488,202.881 251.488,201.996C251.488,201.112 252.206,200.394 253.091,200.394L256.402,200.394C258.904,200.394 260.934,202.425 260.934,204.926L260.934,208.223ZM246.467,200.394C247.352,200.394 248.07,201.112 248.07,201.996C248.07,202.881 247.352,203.599 246.467,203.599L239.844,203.599C238.96,203.599 238.242,202.881 238.242,201.996C238.242,201.112 238.96,200.394 239.844,200.394L246.467,200.394ZM233.221,200.394C234.105,200.394 234.823,201.112 234.823,201.996C234.823,202.881 234.105,203.599 233.221,203.599L226.598,203.599C225.713,203.599 224.995,202.881 224.995,201.996C224.995,201.112 225.713,200.394 226.598,200.394L233.221,200.394ZM219.974,200.394C220.859,200.394 221.577,201.112 221.577,201.996C221.577,202.881 220.859,203.599 219.974,203.599L213.351,203.599C212.467,203.599 211.749,202.881 211.749,201.996C211.749,201.112 212.467,200.394 213.351,200.394L219.974,200.394ZM206.728,200.394C207.612,200.394 208.33,201.112 208.33,201.996C208.33,202.881 207.612,203.599 206.728,203.599L200.105,203.599C199.22,203.599 198.502,202.881 198.502,201.996C198.502,201.112 199.22,200.394 200.105,200.394L206.728,200.394ZM193.481,200.394C194.366,200.394 195.083,201.112 195.083,201.996C195.083,202.881 194.366,203.599 193.481,203.599L186.858,203.599C185.974,203.599 185.256,202.881 185.256,201.996C185.256,201.112 185.974,200.394 186.858,200.394L193.481,200.394ZM180.235,200.394C181.119,200.394 181.837,201.112 181.837,201.996C181.837,202.881 181.119,203.599 180.235,203.599L173.612,203.599C172.727,203.599 172.01,202.881 172.01,201.996C172.01,201.112 172.727,200.394 173.612,200.394L180.235,200.394ZM166.988,200.394C167.873,200.394 168.591,201.112 168.591,201.996C168.591,202.881 167.873,203.599 166.988,203.599L163.677,203.599C162.944,203.599 162.349,204.194 162.349,204.926L162.349,208.223C162.349,209.107 161.631,209.825 160.747,209.825C159.863,209.825 159.145,209.107 159.145,208.223L159.145,204.926C159.145,202.425 161.175,200.394 163.677,200.394L166.988,200.394ZM159.145,214.815C159.145,213.931 159.863,213.213 160.747,213.213C161.631,213.213 162.349,213.931 162.349,214.815L162.349,221.407C162.349,222.292 161.631,223.01 160.747,223.01C159.863,223.01 159.145,222.292 159.145,221.407L159.145,214.815ZM159.145,228C159.145,227.116 159.863,226.398 160.747,226.398C161.631,226.398 162.349,227.116 162.349,228L162.349,234.592C162.349,235.477 161.631,236.195 160.747,236.195C159.863,236.195 159.145,235.477 159.145,234.592L159.145,228ZM159.145,241.185C159.145,240.301 159.863,239.583 160.747,239.583C161.631,239.583 162.349,240.301 162.349,241.185L162.349,247.777C162.349,248.662 161.631,249.38 160.747,249.38C159.863,249.38 159.145,248.662 159.145,247.777L159.145,241.185ZM159.145,254.37C159.145,253.486 159.863,252.768 160.747,252.768C161.631,252.768 162.349,253.486 162.349,254.37L162.349,257.666C162.349,258.399 162.944,258.994 163.677,258.994L166.988,258.994C167.873,258.994 168.591,259.712 168.591,260.596C168.591,261.48 167.873,262.198 166.988,262.198L163.677,262.198C161.175,262.198 159.145,260.167 159.145,257.666L159.145,254.37ZM173.612,262.198C172.727,262.198 172.009,261.48 172.009,260.596C172.009,259.712 172.727,258.994 173.612,258.994L180.235,258.994C181.119,258.994 181.837,259.712 181.837,260.596C181.837,261.48 181.119,262.198 180.235,262.198L173.612,262.198ZM186.858,262.198C185.974,262.198 185.256,261.48 185.256,260.596C185.256,259.712 185.974,258.994 186.858,258.994L193.481,258.994C194.366,258.994 195.084,259.712 195.084,260.596C195.084,261.48 194.366,262.198 193.481,262.198L186.858,262.198ZM200.105,262.198C199.22,262.198 198.502,261.48 198.502,260.596C198.502,259.712 199.22,258.994 200.105,258.994L206.728,258.994C207.612,258.994 208.33,259.712 208.33,260.596C208.33,261.48 207.612,262.198 206.728,262.198L200.105,262.198ZM213.351,262.198C212.467,262.198 211.749,261.48 211.749,260.596C211.749,259.712 212.467,258.994 213.351,258.994L219.974,258.994C220.859,258.994 221.577,259.712 221.577,260.596C221.577,261.48 220.859,262.198 219.974,262.198L213.351,262.198ZM226.598,262.198C225.713,262.198 224.996,261.48 224.996,260.596C224.996,259.712 225.713,258.994 226.598,258.994L233.221,258.994C234.105,258.994 234.823,259.712 234.823,260.596C234.823,261.48 234.105,262.198 233.221,262.198L226.598,262.198ZM239.844,262.198C238.96,262.198 238.242,261.48 238.242,260.596C238.242,259.712 238.96,258.994 239.844,258.994L246.467,258.994C247.352,258.994 248.069,259.712 248.069,260.596C248.069,261.48 247.352,262.198 246.467,262.198L239.844,262.198ZM253.091,262.198C252.206,262.198 251.488,261.48 251.488,260.596C251.488,259.712 252.206,258.994 253.091,258.994L256.402,258.994C257.135,258.994 257.73,258.399 257.73,257.666L257.73,254.37C257.73,253.486 258.448,252.768 259.332,252.768C260.216,252.768 260.934,253.486 260.934,254.37L260.934,257.666C260.934,260.167 258.904,262.198 256.402,262.198L253.091,262.198ZM260.934,247.777C260.934,248.662 260.216,249.38 259.332,249.38C258.448,249.38 257.73,248.662 257.73,247.777L257.73,241.185C257.73,240.301 258.448,239.583 259.332,239.583C260.216,239.583 260.934,240.301 260.934,241.185L260.934,247.777ZM260.934,234.592C260.934,235.477 260.216,236.195 259.332,236.195C258.448,236.195 257.73,235.477 257.73,234.592L257.73,228C257.73,227.116 258.448,226.398 259.332,226.398C260.216,226.398 260.934,227.116 260.934,228L260.934,234.592ZM260.934,221.408C260.934,222.292 260.216,223.01 259.332,223.01C258.448,223.01 257.73,222.292 257.73,221.408L257.73,214.815C257.73,213.931 258.448,213.213 259.332,213.213C260.216,213.213 260.934,213.931 260.934,214.815L260.934,221.408Z" style="fill:rgb(255,232,164);"/>
            </g>
        </g>
        <g transform="matrix(1,0,0,1,401.424,-0.87638)">
            <g id="component10" serif:id="component">
                <path d="M260.934,208.223C260.934,209.107 260.216,209.825 259.332,209.825C258.448,209.825 257.73,209.107 257.73,208.223L257.73,204.926C257.73,204.194 257.135,203.599 256.402,203.599L253.091,203.599C252.206,203.599 251.488,202.881 251.488,201.996C251.488,201.112 252.206,200.394 253.091,200.394L256.402,200.394C258.904,200.394 260.934,202.425 260.934,204.926L260.934,208.223ZM246.467,200.394C247.352,200.394 248.07,201.112 248.07,201.996C248.07,202.881 247.352,203.599 246.467,203.599L239.844,203.599C238.96,203.599 238.242,202.881 238.242,201.996C238.242,201.112 238.96,200.394 239.844,200.394L246.467,200.394ZM233.221,200.394C234.105,200.394 234.823,201.112 234.823,201.996C234.823,202.881 234.105,203.599 233.221,203.599L226.598,203.599C225.713,203.599 224.995,202.881 224.995,201.996C224.995,201.112 225.713,200.394 226.598,200.394L233.221,200.394ZM219.974,200.394C220.859,200.394 221.577,201.112 221.577,201.996C221.577,202.881 220.859,203.599 219.974,203.599L213.351,203.599C212.467,203.599 211.749,202.881 211.749,201.996C211.749,201.112 212.467,200.394 213.351,200.394L219.974,200.394ZM206.728,200.394C207.612,200.394 208.33,201.112 208.33,201.996C208.33,202.881 207.612,203.599 206.728,203.599L200.105,203.599C199.22,203.599 198.502,202.881 198.502,201.996C198.502,201.112 199.22,200.394 200.105,200.394L206.728,200.394ZM193.481,200.394C194.366,200.394 195.083,201.112 195.083,201.996C195.083,202.881 194.366,203.599 193.481,203.599L186.858,203.599C185.974,203.599 185.256,202.881 185.256,201.996C185.256,201.112 185.974,200.394 186.858,200.394L193.481,200.394ZM180.235,200.394C181.119,200.394 181.837,201.112 181.837,201.996C181.837,202.881 181.119,203.599 180.235,203.599L173.612,203.599C172.727,203.599 172.01,202.881 172.01,201.996C172.01,201.112 172.727,200.394 173.612,200.394L180.235,200.394ZM166.988,200.394C167.873,200.394 168.591,201.112 168.591,201.996C168.591,202.881 167.873,203.599 166.988,203.599L163.677,203.599C162.944,203.599 162.349,204.194 162.349,204.926L162.349,208.223C162.349,209.107 161.631,209.825 160.747,209.825C159.863,209.825 159.145,209.107 159.145,208.223L159.145,204.926C159.145,202.425 161.175,200.394 163.677,200.394L166.988,200.394ZM159.145,214.815C159.145,213.931 159.863,213.213 160.747,213.213C161.631,213.213 162.349,213.931 162.349,214.815L162.349,221.407C162.349,222.292 161.631,223.01 160.747,223.01C159.863,223.01 159.145,222.292 159.145,221.407L159.145,214.815ZM159.145,228C159.145,227.116 159.863,226.398 160.747,226.398C161.631,226.398 162.349,227.116 162.349,228L162.349,234.592C162.349,235.477 161.631,236.195 160.747,236.195C159.863,236.195 159.145,235.477 159.145,234.592L159.145,228ZM159.145,241.185C159.145,240.301 159.863,239.583 160.747,239.583C161.631,239.583 162.349,240.301 162.349,241.185L162.349,247.777C162.349,248.662 161.631,249.38 160.747,249.38C159.863,249.38 159.145,248.662 159.145,247.777L159.145,241.185ZM159.145,254.37C159.145,253.486 159.863,252.768 160.747,252.768C161.631,252.768 162.349,253.486 162.349,254.37L162.349,257.666C162.349,258.399 162.944,258.994 163.677,258.994L166.988,258.994C167.873,258.994 168.591,259.712 168.591,260.596C168.591,261.48 167.873,262.198 166.988,262.198L163.677,262.198C161.175,262.198 159.145,260.167 159.145,257.666L159.145,254.37ZM173.612,262.198C172.727,262.198 172.009,261.48 172.009,260.596C172.009,259.712 172.727,258.994 173.612,258.994L180.235,258.994C181.119,258.994 181.837,259.712 181.837,260.596C181.837,261.48 181.119,262.198 180.235,262.198L173.612,262.198ZM186.858,262.198C185.974,262.198 185.256,261.48 185.256,260.596C185.256,259.712 185.974,258.994 186.858,258.994L193.481,258.994C194.366,258.994 195.084,259.712 195.084,260.596C195.084,261.48 194.366,262.198 193.481,262.198L186.858,262.198ZM200.105,262.198C199.22,262.198 198.502,261.48 198.502,260.596C198.502,259.712 199.22,258.994 200.105,258.994L206.728,258.994C207.612,258.994 208.33,259.712 208.33,260.596C208.33,261.48 207.612,262.198 206.728,262.198L200.105,262.198ZM213.351,262.198C212.467,262.198 211.749,261.48 211.749,260.596C211.749,259.712 212.467,258.994 213.351,258.994L219.974,258.994C220.859,258.994 221.577,259.712 221.577,260.596C221.577,261.48 220.859,262.198 219.974,262.198L213.351,262.198ZM226.598,262.198C225.713,262.198 224.996,261.48 224.996,260.596C224.996,259.712 225.713,258.994 226.598,258.994L233.221,258.994C234.105,258.994 234.823,259.712 234.823,260.596C234.823,261.48 234.105,262.198 233.221,262.198L226.598,262.198ZM239.844,262.198C238.96,262.198 238.242,261.48 238.242,260.596C238.242,259.712 238.96,258.994 239.844,258.994L246.467,258.994C247.352,258.994 248.069,259.712 248.069,260.596C248.069,261.48 247.352,262.198 246.467,262.198L239.844,262.198ZM253.091,262.198C252.206,262.198 251.488,261.48 251.488,260.596C251.488,259.712 252.206,258.994 253.091,258.994L256.402,258.994C257.135,258.994 257.73,258.399 257.73,257.666L257.73,254.37C257.73,253.486 258.448,252.768 259.332,252.768C260.216,252.768 260.934,253.486 260.934,254.37L260.934,257.666C260.934,260.167 258.904,262.198 256.402,262.198L253.091,262.198ZM260.934,247.777C260.934,248.662 260.216,249.38 259.332,249.38C258.448,249.38 257.73,248.662 257.73,247.777L257.73,241.185C257.73,240.301 258.448,239.583 259.332,239.583C260.216,239.583 260.934,240.301 260.934,241.185L260.934,247.777ZM260.934,234.592C260.934,235.477 260.216,236.195 259.332,236.195C258.448,236.195 257.73,235.477 257.73,234.592L257.73,228C257.73,227.116 258.448,226.398 259.332,226.398C260.216,226.398 260.934,227.116 260.934,228L260.934,234.592ZM260.934,221.408C260.934,222.292 260.216,223.01 259.332,223.01C258.448,223.01 257.73,222.292 257.73,221.408L257.73,214.815C257.73,213.931 258.448,213.213 259.332,213.213C260.216,213.213 260.934,213.931 260.934,214.815L260.934,221.408Z" style="fill:rgb(255,232,164);"/>
            </g>
        </g>
        <g transform="matrix(1,0,0,1,519.767,99.2182)">
            <g id="component11" serif:id="component">
                <path d="M260.934,208.223C260.934,209.107 260.216,209.825 259.332,209.825C258.448,209.825 257.73,209.107 257.73,208.223L257.73,204.926C257.73,204.194 257.135,203.599 256.402,203.599L253.091,203.599C252.206,203.599 251.488,202.881 251.488,201.996C251.488,201.112 252.206,200.394 253.091,200.394L256.402,200.394C258.904,200.394 260.934,202.425 260.934,204.926L260.934,208.223ZM246.467,200.394C247.352,200.394 248.07,201.112 248.07,201.996C248.07,202.881 247.352,203.599 246.467,203.599L239.844,203.599C238.96,203.599 238.242,202.881 238.242,201.996C238.242,201.112 238.96,200.394 239.844,200.394L246.467,200.394ZM233.221,200.394C234.105,200.394 234.823,201.112 234.823,201.996C234.823,202.881 234.105,203.599 233.221,203.599L226.598,203.599C225.713,203.599 224.995,202.881 224.995,201.996C224.995,201.112 225.713,200.394 226.598,200.394L233.221,200.394ZM219.974,200.394C220.859,200.394 221.577,201.112 221.577,201.996C221.577,202.881 220.859,203.599 219.974,203.599L213.351,203.599C212.467,203.599 211.749,202.881 211.749,201.996C211.749,201.112 212.467,200.394 213.351,200.394L219.974,200.394ZM206.728,200.394C207.612,200.394 208.33,201.112 208.33,201.996C208.33,202.881 207.612,203.599 206.728,203.599L200.105,203.599C199.22,203.599 198.502,202.881 198.502,201.996C198.502,201.112 199.22,200.394 200.105,200.394L206.728,200.394ZM193.481,200.394C194.366,200.394 195.083,201.112 195.083,201.996C195.083,202.881 194.366,203.599 193.481,203.599L186.858,203.599C185.974,203.599 185.256,202.881 185.256,201.996C185.256,201.112 185.974,200.394 186.858,200.394L193.481,200.394ZM180.235,200.394C181.119,200.394 181.837,201.112 181.837,201.996C181.837,202.881 181.119,203.599 180.235,203.599L173.612,203.599C172.727,203.599 172.01,202.881 172.01,201.996C172.01,201.112 172.727,200.394 173.612,200.394L180.235,200.394ZM166.988,200.394C167.873,200.394 168.591,201.112 168.591,201.996C168.591,202.881 167.873,203.599 166.988,203.599L163.677,203.599C162.944,203.599 162.349,204.194 162.349,204.926L162.349,208.223C162.349,209.107 161.631,209.825 160.747,209.825C159.863,209.825 159.145,209.107 159.145,208.223L159.145,204.926C159.145,202.425 161.175,200.394 163.677,200.394L166.988,200.394ZM159.145,214.815C159.145,213.931 159.863,213.213 160.747,213.213C161.631,213.213 162.349,213.931 162.349,214.815L162.349,221.407C162.349,222.292 161.631,223.01 160.747,223.01C159.863,223.01 159.145,222.292 159.145,221.407L159.145,214.815ZM159.145,228C159.145,227.116 159.863,226.398 160.747,226.398C161.631,226.398 162.349,227.116 162.349,228L162.349,234.592C162.349,235.477 161.631,236.195 160.747,236.195C159.863,236.195 159.145,235.477 159.145,234.592L159.145,228ZM159.145,241.185C159.145,240.301 159.863,239.583 160.747,239.583C161.631,239.583 162.349,240.301 162.349,241.185L162.349,247.777C162.349,248.662 161.631,249.38 160.747,249.38C159.863,249.38 159.145,248.662 159.145,247.777L159.145,241.185ZM159.145,254.37C159.145,253.486 159.863,252.768 160.747,252.768C161.631,252.768 162.349,253.486 162.349,254.37L162.349,257.666C162.349,258.399 162.944,258.994 163.677,258.994L166.988,258.994C167.873,258.994 168.591,259.712 168.591,260.596C168.591,261.48 167.873,262.198 166.988,262.198L163.677,262.198C161.175,262.198 159.145,260.167 159.145,257.666L159.145,254.37ZM173.612,262.198C172.727,262.198 172.009,261.48 172.009,260.596C172.009,259.712 172.727,258.994 173.612,258.994L180.235,258.994C181.119,258.994 181.837,259.712 181.837,260.596C181.837,261.48 181.119,262.198 180.235,262.198L173.612,262.198ZM186.858,262.198C185.974,262.198 185.256,261.48 185.256,260.596C185.256,259.712 185.974,258.994 186.858,258.994L193.481,258.994C194.366,258.994 195.084,259.712 195.084,260.596C195.084,261.48 194.366,262.198 193.481,262.198L186.858,262.198ZM200.105,262.198C199.22,262.198 198.502,261.48 198.502,260.596C198.502,259.712 199.22,258.994 200.105,258.994L206.728,258.994C207.612,258.994 208.33,259.712 208.33,260.596C208.33,261.48 207.612,262.198 206.728,262.198L200.105,262.198ZM213.351,262.198C212.467,262.198 211.749,261.48 211.749,260.596C211.749,259.712 212.467,258.994 213.351,258.994L219.974,258.994C220.859,258.994 221.577,259.712 221.577,260.596C221.577,261.48 220.859,262.198 219.974,262.198L213.351,262.198ZM226.598,262.198C225.713,262.198 224.996,261.48 224.996,260.596C224.996,259.712 225.713,258.994 226.598,258.994L233.221,258.994C234.105,258.994 234.823,259.712 234.823,260.596C234.823,261.48 234.105,262.198 233.221,262.198L226.598,262.198ZM239.844,262.198C238.96,262.198 238.242,261.48 238.242,260.596C238.242,259.712 238.96,258.994 239.844,258.994L246.467,258.994C247.352,258.994 248.069,259.712 248.069,260.596C248.069,261.48 247.352,262.198 246.467,262.198L239.844,262.198ZM253.091,262.198C252.206,262.198 251.488,261.48 251.488,260.596C251.488,259.712 252.206,258.994 253.091,258.994L256.402,258.994C257.135,258.994 257.73,258.399 257.73,257.666L257.73,254.37C257.73,253.486 258.448,252.768 259.332,252.768C260.216,252.768 260.934,253.486 260.934,254.37L260.934,257.666C260.934,260.167 258.904,262.198 256.402,262.198L253.091,262.198ZM260.934,247.777C260.934,248.662 260.216,249.38 259.332,249.38C258.448,249.38 257.73,248.662 257.73,247.777L257.73,241.185C257.73,240.301 258.448,239.583 259.332,239.583C260.216,239.583 260.934,240.301 260.934,241.185L260.934,247.777ZM260.934,234.592C260.934,235.477 260.216,236.195 259.332,236.195C258.448,236.195 257.73,235.477 257.73,234.592L257.73,228C257.73,227.116 258.448,226.398 259.332,226.398C260.216,226.398 260.934,227.116 260.934,228L260.934,234.592ZM260.934,221.408C260.934,222.292 260.216,223.01 259.332,223.01C258.448,223.01 257.73,222.292 257.73,221.408L257.73,214.815C257.73,213.931 258.448,213.213 259.332,213.213C260.216,213.213 260.934,213.931 260.934,214.815L260.934,221.408Z" style="fill:rgb(255,232,164);"/>
            </g>
        </g>
        <g transform="matrix(1,0,0,1,280.315,99.2182)">
            <g id="component12" serif:id="component">
                <path d="M260.934,208.223C260.934,209.107 260.216,209.825 259.332,209.825C258.448,209.825 257.73,209.107 257.73,208.223L257.73,204.926C257.73,204.194 257.135,203.599 256.402,203.599L253.091,203.599C252.206,203.599 251.488,202.881 251.488,201.996C251.488,201.112 252.206,200.394 253.091,200.394L256.402,200.394C258.904,200.394 260.934,202.425 260.934,204.926L260.934,208.223ZM246.467,200.394C247.352,200.394 248.07,201.112 248.07,201.996C248.07,202.881 247.352,203.599 246.467,203.599L239.844,203.599C238.96,203.599 238.242,202.881 238.242,201.996C238.242,201.112 238.96,200.394 239.844,200.394L246.467,200.394ZM233.221,200.394C234.105,200.394 234.823,201.112 234.823,201.996C234.823,202.881 234.105,203.599 233.221,203.599L226.598,203.599C225.713,203.599 224.995,202.881 224.995,201.996C224.995,201.112 225.713,200.394 226.598,200.394L233.221,200.394ZM219.974,200.394C220.859,200.394 221.577,201.112 221.577,201.996C221.577,202.881 220.859,203.599 219.974,203.599L213.351,203.599C212.467,203.599 211.749,202.881 211.749,201.996C211.749,201.112 212.467,200.394 213.351,200.394L219.974,200.394ZM206.728,200.394C207.612,200.394 208.33,201.112 208.33,201.996C208.33,202.881 207.612,203.599 206.728,203.599L200.105,203.599C199.22,203.599 198.502,202.881 198.502,201.996C198.502,201.112 199.22,200.394 200.105,200.394L206.728,200.394ZM193.481,200.394C194.366,200.394 195.083,201.112 195.083,201.996C195.083,202.881 194.366,203.599 193.481,203.599L186.858,203.599C185.974,203.599 185.256,202.881 185.256,201.996C185.256,201.112 185.974,200.394 186.858,200.394L193.481,200.394ZM180.235,200.394C181.119,200.394 181.837,201.112 181.837,201.996C181.837,202.881 181.119,203.599 180.235,203.599L173.612,203.599C172.727,203.599 172.01,202.881 172.01,201.996C172.01,201.112 172.727,200.394 173.612,200.394L180.235,200.394ZM166.988,200.394C167.873,200.394 168.591,201.112 168.591,201.996C168.591,202.881 167.873,203.599 166.988,203.599L163.677,203.599C162.944,203.599 162.349,204.194 162.349,204.926L162.349,208.223C162.349,209.107 161.631,209.825 160.747,209.825C159.863,209.825 159.145,209.107 159.145,208.223L159.145,204.926C159.145,202.425 161.175,200.394 163.677,200.394L166.988,200.394ZM159.145,214.815C159.145,213.931 159.863,213.213 160.747,213.213C161.631,213.213 162.349,213.931 162.349,214.815L162.349,221.407C162.349,222.292 161.631,223.01 160.747,223.01C159.863,223.01 159.145,222.292 159.145,221.407L159.145,214.815ZM159.145,228C159.145,227.116 159.863,226.398 160.747,226.398C161.631,226.398 162.349,227.116 162.349,228L162.349,234.592C162.349,235.477 161.631,236.195 160.747,236.195C159.863,236.195 159.145,235.477 159.145,234.592L159.145,228ZM159.145,241.185C159.145,240.301 159.863,239.583 160.747,239.583C161.631,239.583 162.349,240.301 162.349,241.185L162.349,247.777C162.349,248.662 161.631,249.38 160.747,249.38C159.863,249.38 159.145,248.662 159.145,247.777L159.145,241.185ZM159.145,254.37C159.145,253.486 159.863,252.768 160.747,252.768C161.631,252.768 162.349,253.486 162.349,254.37L162.349,257.666C162.349,258.399 162.944,258.994 163.677,258.994L166.988,258.994C167.873,258.994 168.591,259.712 168.591,260.596C168.591,261.48 167.873,262.198 166.988,262.198L163.677,262.198C161.175,262.198 159.145,260.167 159.145,257.666L159.145,254.37ZM173.612,262.198C172.727,262.198 172.009,261.48 172.009,260.596C172.009,259.712 172.727,258.994 173.612,258.994L180.235,258.994C181.119,258.994 181.837,259.712 181.837,260.596C181.837,261.48 181.119,262.198 180.235,262.198L173.612,262.198ZM186.858,262.198C185.974,262.198 185.256,261.48 185.256,260.596C185.256,259.712 185.974,258.994 186.858,258.994L193.481,258.994C194.366,258.994 195.084,259.712 195.084,260.596C195.084,261.48 194.366,262.198 193.481,262.198L186.858,262.198ZM200.105,262.198C199.22,262.198 198.502,261.48 198.502,260.596C198.502,259.712 199.22,258.994 200.105,258.994L206.728,258.994C207.612,258.994 208.33,259.712 208.33,260.596C208.33,261.48 207.612,262.198 206.728,262.198L200.105,262.198ZM213.351,262.198C212.467,262.198 211.749,261.48 211.749,260.596C211.749,259.712 212.467,258.994 213.351,258.994L219.974,258.994C220.859,258.994 221.577,259.712 221.577,260.596C221.577,261.48 220.859,262.198 219.974,262.198L213.351,262.198ZM226.598,262.198C225.713,262.198 224.996,261.48 224.996,260.596C224.996,259.712 225.713,258.994 226.598,258.994L233.221,258.994C234.105,258.994 234.823,259.712 234.823,260.596C234.823,261.48 234.105,262.198 233.221,262.198L226.598,262.198ZM239.844,262.198C238.96,262.198 238.242,261.48 238.242,260.596C238.242,259.712 238.96,258.994 239.844,258.994L246.467,258.994C247.352,258.994 248.069,259.712 248.069,260.596C248.069,261.48 247.352,262.198 246.467,262.198L239.844,262.198ZM253.091,262.198C252.206,262.198 251.488,261.48 251.488,260.596C251.488,259.712 252.206,258.994 253.091,258.994L256.402,258.994C257.135,258.994 257.73,258.399 257.73,257.666L257.73,254.37C257.73,253.486 258.448,252.768 259.332,252.768C260.216,252.768 260.934,253.486 260.934,254.37L260.934,257.666C260.934,260.167 258.904,262.198 256.402,262.198L253.091,262.198ZM260.934,247.777C260.934,248.662 260.216,249.38 259.332,249.38C258.448,249.38 257.73,248.662 257.73,247.777L257.73,241.185C257.73,240.301 258.448,239.583 259.332,239.583C260.216,239.583 260.934,240.301 260.934,241.185L260.934,247.777ZM260.934,234.592C260.934,235.477 260.216,236.195 259.332,236.195C258.448,236.195 257.73,235.477 257.73,234.592L257.73,228C257.73,227.116 258.448,226.398 259.332,226.398C260.216,226.398 260.934,227.116 260.934,228L260.934,234.592ZM260.934,221.408C260.934,222.292 260.216,223.01 259.332,223.01C258.448,223.01 257.73,222.292 257.73,221.408L257.73,214.815C257.73,213.931 258.448,213.213 259.332,213.213C260.216,213.213 260.934,213.931 260.934,214.815L260.934,221.408Z" style="fill:rgb(255,232,164);"/>
            </g>
        </g>
        <g transform="matrix(1,0,0,1,280.315,180.51)">
            <g id="component13" serif:id="component">
                <path d="M260.934,208.223C260.934,209.107 260.216,209.825 259.332,209.825C258.448,209.825 257.73,209.107 257.73,208.223L257.73,204.926C257.73,204.194 257.135,203.599 256.402,203.599L253.091,203.599C252.206,203.599 251.488,202.881 251.488,201.996C251.488,201.112 252.206,200.394 253.091,200.394L256.402,200.394C258.904,200.394 260.934,202.425 260.934,204.926L260.934,208.223ZM246.467,200.394C247.352,200.394 248.07,201.112 248.07,201.996C248.07,202.881 247.352,203.599 246.467,203.599L239.844,203.599C238.96,203.599 238.242,202.881 238.242,201.996C238.242,201.112 238.96,200.394 239.844,200.394L246.467,200.394ZM233.221,200.394C234.105,200.394 234.823,201.112 234.823,201.996C234.823,202.881 234.105,203.599 233.221,203.599L226.598,203.599C225.713,203.599 224.995,202.881 224.995,201.996C224.995,201.112 225.713,200.394 226.598,200.394L233.221,200.394ZM219.974,200.394C220.859,200.394 221.577,201.112 221.577,201.996C221.577,202.881 220.859,203.599 219.974,203.599L213.351,203.599C212.467,203.599 211.749,202.881 211.749,201.996C211.749,201.112 212.467,200.394 213.351,200.394L219.974,200.394ZM206.728,200.394C207.612,200.394 208.33,201.112 208.33,201.996C208.33,202.881 207.612,203.599 206.728,203.599L200.105,203.599C199.22,203.599 198.502,202.881 198.502,201.996C198.502,201.112 199.22,200.394 200.105,200.394L206.728,200.394ZM193.481,200.394C194.366,200.394 195.083,201.112 195.083,201.996C195.083,202.881 194.366,203.599 193.481,203.599L186.858,203.599C185.974,203.599 185.256,202.881 185.256,201.996C185.256,201.112 185.974,200.394 186.858,200.394L193.481,200.394ZM180.235,200.394C181.119,200.394 181.837,201.112 181.837,201.996C181.837,202.881 181.119,203.599 180.235,203.599L173.612,203.599C172.727,203.599 172.01,202.881 172.01,201.996C172.01,201.112 172.727,200.394 173.612,200.394L180.235,200.394ZM166.988,200.394C167.873,200.394 168.591,201.112 168.591,201.996C168.591,202.881 167.873,203.599 166.988,203.599L163.677,203.599C162.944,203.599 162.349,204.194 162.349,204.926L162.349,208.223C162.349,209.107 161.631,209.825 160.747,209.825C159.863,209.825 159.145,209.107 159.145,208.223L159.145,204.926C159.145,202.425 161.175,200.394 163.677,200.394L166.988,200.394ZM159.145,214.815C159.145,213.931 159.863,213.213 160.747,213.213C161.631,213.213 162.349,213.931 162.349,214.815L162.349,221.407C162.349,222.292 161.631,223.01 160.747,223.01C159.863,223.01 159.145,222.292 159.145,221.407L159.145,214.815ZM159.145,228C159.145,227.116 159.863,226.398 160.747,226.398C161.631,226.398 162.349,227.116 162.349,228L162.349,234.592C162.349,235.477 161.631,236.195 160.747,236.195C159.863,236.195 159.145,235.477 159.145,234.592L159.145,228ZM159.145,241.185C159.145,240.301 159.863,239.583 160.747,239.583C161.631,239.583 162.349,240.301 162.349,241.185L162.349,247.777C162.349,248.662 161.631,249.38 160.747,249.38C159.863,249.38 159.145,248.662 159.145,247.777L159.145,241.185ZM159.145,254.37C159.145,253.486 159.863,252.768 160.747,252.768C161.631,252.768 162.349,253.486 162.349,254.37L162.349,257.666C162.349,258.399 162.944,258.994 163.677,258.994L166.988,258.994C167.873,258.994 168.591,259.712 168.591,260.596C168.591,261.48 167.873,262.198 166.988,262.198L163.677,262.198C161.175,262.198 159.145,260.167 159.145,257.666L159.145,254.37ZM173.612,262.198C172.727,262.198 172.009,261.48 172.009,260.596C172.009,259.712 172.727,258.994 173.612,258.994L180.235,258.994C181.119,258.994 181.837,259.712 181.837,260.596C181.837,261.48 181.119,262.198 180.235,262.198L173.612,262.198ZM186.858,262.198C185.974,262.198 185.256,261.48 185.256,260.596C185.256,259.712 185.974,258.994 186.858,258.994L193.481,258.994C194.366,258.994 195.084,259.712 195.084,260.596C195.084,261.48 194.366,262.198 193.481,262.198L186.858,262.198ZM200.105,262.198C199.22,262.198 198.502,261.48 198.502,260.596C198.502,259.712 199.22,258.994 200.105,258.994L206.728,258.994C207.612,258.994 208.33,259.712 208.33,260.596C208.33,261.48 207.612,262.198 206.728,262.198L200.105,262.198ZM213.351,262.198C212.467,262.198 211.749,261.48 211.749,260.596C211.749,259.712 212.467,258.994 213.351,258.994L219.974,258.994C220.859,258.994 221.577,259.712 221.577,260.596C221.577,261.48 220.859,262.198 219.974,262.198L213.351,262.198ZM226.598,262.198C225.713,262.198 224.996,261.48 224.996,260.596C224.996,259.712 225.713,258.994 226.598,258.994L233.221,258.994C234.105,258.994 234.823,259.712 234.823,260.596C234.823,261.48 234.105,262.198 233.221,262.198L226.598,262.198ZM239.844,262.198C238.96,262.198 238.242,261.48 238.242,260.596C238.242,259.712 238.96,258.994 239.844,258.994L246.467,258.994C247.352,258.994 248.069,259.712 248.069,260.596C248.069,261.48 247.352,262.198 246.467,262.198L239.844,262.198ZM253.091,262.198C252.206,262.198 251.488,261.48 251.488,260.596C251.488,259.712 252.206,258.994 253.091,258.994L256.402,258.994C257.135,258.994 257.73,258.399 257.73,257.666L257.73,254.37C257.73,253.486 258.448,252.768 259.332,252.768C260.216,252.768 260.934,253.486 260.934,254.37L260.934,257.666C260.934,260.167 258.904,262.198 256.402,262.198L253.091,262.198ZM260.934,247.777C260.934,248.662 260.216,249.38 259.332,249.38C258.448,249.38 257.73,248.662 257.73,247.777L257.73,241.185C257.73,240.301 258.448,239.583 259.332,239.583C260.216,239.583 260.934,240.301 260.934,241.185L260.934,247.777ZM260.934,234.592C260.934,235.477 260.216,236.195 259.332,236.195C258.448,236.195 257.73,235.477 257.73,234.592L257.73,228C257.73,227.116 258.448,226.398 259.332,226.398C260.216,226.398 260.934,227.116 260.934,228L260.934,234.592ZM260.934,221.408C260.934,222.292 260.216,223.01 259.332,223.01C258.448,223.01 257.73,222.292 257.73,221.408L257.73,214.815C257.73,213.931 258.448,213.213 259.332,213.213C260.216,213.213 260.934,213.931 260.934,214.815L260.934,221.408Z" style="fill:rgb(255,232,164);"/>
            </g>
        </g>
        <g id="component14" serif:id="component" transform="matrix(1,0,0,1,0.821978,0.853458)">
            <g transform="matrix(1,0,0,1,120.037,97.6768)">
                <path d="M259.332,204.926C259.332,203.309 258.019,201.996 256.402,201.996L163.677,201.996C162.06,201.996 160.747,203.309 160.747,204.926L160.747,257.666C160.747,259.283 162.06,260.596 163.677,260.596L256.402,260.596C258.019,260.596 259.332,259.283 259.332,257.666L259.332,204.926Z" style="fill:rgb(255,232,164);"/>
            </g>
            <g transform="matrix(1,0,0,1,104.982,100.901)">
                <g transform="matrix(9,0,0,9,268.974,226.485)">
                </g>
                <text x="182.574px" y="226.485px" style="font-family:'BlexMonoSmBldNF', 'BlexMonoSmBld Nerd Font', monospace;font-weight:600;font-size:9px;fill:rgb(51,49,59);">&lt;view-component&gt;</text>
            </g>
        </g>
        <g id="component15" serif:id="component" transform="matrix(1,0,0,1,0.821978,0.853458)">
            <g transform="matrix(1,0,0,1,-119.448,198.296)">
                <path d="M259.332,204.926C259.332,203.309 258.019,201.996 256.402,201.996L163.677,201.996C162.06,201.996 160.747,203.309 160.747,204.926L160.747,257.666C160.747,259.283 162.06,260.596 163.677,260.596L256.402,260.596C258.019,260.596 259.332,259.283 259.332,257.666L259.332,204.926Z" style="fill:rgb(255,232,164);"/>
            </g>
            <g transform="matrix(1,0,0,1,-135.524,201.303)">
                <g transform="matrix(9,0,0,9,268.974,226.485)">
                </g>
                <text x="182.574px" y="226.485px" style="font-family:'BlexMonoSmBldNF', 'BlexMonoSmBld Nerd Font', monospace;font-weight:600;font-size:9px;fill:rgb(51,49,59);">&lt;view-component&gt;</text>
            </g>
        </g>
        <g id="component16" serif:id="component" transform="matrix(1,0,0,1,0.821978,0.853458)">
            <g transform="matrix(1,0,0,1,-119.742,97.971)">
                <path d="M259.332,204.926C259.332,203.309 258.019,201.996 256.402,201.996L163.677,201.996C162.06,201.996 160.747,203.309 160.747,204.926L160.747,257.666C160.747,259.283 162.06,260.596 163.677,260.596L256.402,260.596C258.019,260.596 259.332,259.283 259.332,257.666L259.332,204.926Z" style="fill:rgb(255,232,164);"/>
            </g>
            <g transform="matrix(1,0,0,1,-136.077,101.6)">
                <g transform="matrix(9,0,0,9,268.974,226.485)">
                </g>
                <text x="182.574px" y="226.485px" style="font-family:'BlexMonoSmBldNF', 'BlexMonoSmBld Nerd Font', monospace;font-weight:600;font-size:9px;fill:rgb(51,49,59);">&lt;view-component&gt;</text>
            </g>
        </g>
        <g id="connect-point" transform="matrix(1,0,0,1,1.11619,-5.6191)">
            <circle cx="209.695" cy="266.801" r="13.788" style="fill:rgb(255,198,28);"/>
            <g transform="matrix(0.562988,0,0,0.562988,91.7861,116.54)">
                <circle cx="209.695" cy="266.801" r="13.788" style="fill:rgb(51,49,59);"/>
            </g>
        </g>
        <g id="connect-point1" serif:id="connect-point" transform="matrix(1,0,0,1,-118.626,94.1172)">
            <circle cx="209.695" cy="266.801" r="13.788" style="fill:rgb(255,198,28);"/>
            <g transform="matrix(0.562988,0,0,0.562988,91.7861,116.54)">
                <circle cx="209.695" cy="266.801" r="13.788" style="fill:rgb(51,49,59);"/>
            </g>
        </g>
        <g id="bottom-arrow" serif:id="bottom arrow" transform="matrix(1,0,0,1,0.821978,2.91291)">
            <path d="M90.47,360.313L90.47,405.033" style="fill:none;stroke:rgb(51,49,59);stroke-width:1px;"/>
            <g transform="matrix(1,0,0,-1,3.8247,810.948)">
                <path d="M86.645,402.385L90.176,409.446L83.115,409.446L86.645,402.385Z" style="fill:rgb(51,49,59);"/>
            </g>
        </g>
        <g id="connect-point2" serif:id="connect-point" transform="matrix(1,0,0,1,278.554,94.8527)">
            <circle cx="209.695" cy="266.801" r="13.788" style="fill:rgb(255,198,28);"/>
            <g transform="matrix(0.562988,0,0,0.562988,91.7861,116.54)">
                <circle cx="209.695" cy="266.801" r="13.788" style="fill:rgb(51,49,59);"/>
            </g>
        </g>
        <g id="bottom-arrow1" serif:id="bottom arrow" transform="matrix(1,0,0,1,398.002,3.64843)">
            <g transform="matrix(1,0,0,0.572368,0,154.081)">
                <path d="M90.47,360.313L90.47,405.033" style="fill:none;stroke:rgb(51,49,59);stroke-width:1.23px;"/>
            </g>
            <g transform="matrix(1,0,0,-1,3.8247,792.193)">
                <path d="M86.645,402.385L90.176,409.446L83.115,409.446L86.645,402.385Z" style="fill:rgb(51,49,59);"/>
            </g>
        </g>
        <g id="bottom-arrow2" serif:id="bottom arrow" transform="matrix(1,0,0,1,120.859,-97.4118)">
            <path d="M90.47,360.313L90.47,405.033" style="fill:none;stroke:rgb(51,49,59);stroke-width:1px;"/>
            <g transform="matrix(1,0,0,-1,3.8247,810.948)">
                <path d="M86.645,402.385L90.176,409.446L83.115,409.446L86.645,402.385Z" style="fill:rgb(51,49,59);"/>
            </g>
        </g>
        <g id="left-round-arrow" serif:id="left round arrow" transform="matrix(1,0,0,1,0.821978,0.853458)">
            <path d="M210.506,259.694C210.506,259.694 205.141,279.348 190.5,279.701C156.085,280.529 127.724,280.42 99.884,280.289C93.101,280.257 89.54,285.388 89.587,289.998C89.637,294.84 89.881,309.121 89.881,309.121" style="fill:none;stroke:rgb(51,49,59);stroke-width:1px;"/>
            <g transform="matrix(1,0,0,-1,3.12771,713.031)">
                <path d="M86.645,402.385L90.176,409.446L83.115,409.446L86.645,402.385Z" style="fill:rgb(51,49,59);"/>
            </g>
        </g>
        <g id="right-round-arrow" serif:id="right round arrow" transform="matrix(-1,0,0,1,421.605,0.158589)">
            <path d="M210.506,259.694C210.506,259.694 205.141,279.348 190.5,279.701C156.085,280.529 127.724,280.42 99.884,280.289C93.101,280.257 89.54,285.388 89.587,289.998C89.637,294.84 89.881,309.121 89.881,309.121" style="fill:none;stroke:rgb(51,49,59);stroke-width:1px;"/>
            <g transform="matrix(1,0,0,-1,3.12771,713.031)">
                <path d="M86.645,402.385L90.176,409.446L83.115,409.446L86.645,402.385Z" style="fill:rgb(51,49,59);"/>
            </g>
        </g>
        <g id="connect-point3" serif:id="connect-point" transform="matrix(1,0,0,1,400.941,-5.6191)">
            <circle cx="209.695" cy="266.801" r="13.788" style="fill:rgb(255,198,28);"/>
            <g transform="matrix(0.562988,0,0,0.562988,91.7861,116.54)">
                <circle cx="209.695" cy="266.801" r="13.788" style="fill:rgb(51,49,59);"/>
            </g>
        </g>
        <g id="left-round-arrow1" serif:id="left round arrow" transform="matrix(1,0,0,1,400.647,0.853458)">
            <path d="M210.506,259.694C210.506,259.694 205.141,279.348 190.5,279.701C156.085,280.529 127.724,280.42 99.884,280.289C93.101,280.257 89.54,285.388 89.587,289.998C89.637,294.84 89.881,309.121 89.881,309.121" style="fill:none;stroke:rgb(51,49,59);stroke-width:1px;"/>
            <g transform="matrix(1,0,0,-1,3.12771,713.031)">
                <path d="M86.645,402.385L90.176,409.446L83.115,409.446L86.645,402.385Z" style="fill:rgb(51,49,59);"/>
            </g>
        </g>
        <g id="right-round-arrow1" serif:id="right round arrow" transform="matrix(-1,0,0,1,821.43,0.158589)">
            <path d="M210.506,259.694C210.506,259.694 205.141,279.348 190.5,279.701C156.085,280.529 127.724,280.42 99.884,280.289C93.101,280.257 89.54,285.388 89.587,289.998C89.637,294.84 89.881,309.121 89.881,309.121" style="fill:none;stroke:rgb(51,49,59);stroke-width:1px;"/>
            <g transform="matrix(1,0,0,-1,3.12771,713.031)">
                <path d="M86.645,402.385L90.176,409.446L83.115,409.446L86.645,402.385Z" style="fill:rgb(51,49,59);"/>
            </g>
        </g>
        <g transform="matrix(1,0,0,1,77.152,-107.675)">
            <g transform="matrix(12,0,0,12,283.374,226.485)">
            </g>
            <text x="182.574px" y="226.485px" style="font-family:'BlexMonoSmBldNF', 'BlexMonoSmBld Nerd Font', monospace;font-weight:600;font-size:12px;fill:rgb(51,49,59);">browser window</text>
        </g>
        <g transform="matrix(1,0,0,1,505.181,-107.122)">
            <g transform="matrix(12,0,0,12,254.574,226.485)">
            </g>
            <text x="182.574px" y="226.485px" style="font-family:'BlexMonoSmBldNF', 'BlexMonoSmBld Nerd Font', monospace;font-weight:600;font-size:12px;fill:rgb(51,49,59);">web worker</text>
        </g>
    </g>
</svg>
