<?xml version="1.0" standalone="no"?>
<!DOCTYPE svg PUBLIC "-//W3C//DTD SVG 1.1//EN" "http://www.w3.org/Graphics/SVG/1.1/DTD/svg11.dtd">
<svg width="250" height="100%" viewBox="0 280 1920 500" version="1.1"
    xmlns="http://www.w3.org/2000/svg" xmlns:xlink="http://www.w3.org/1999/xlink"
    xml:space="preserve"
    style="fill-rule:evenodd;clip-rule:evenodd;stroke-linecap:round;stroke-linejoin:round;stroke-miterlimit:1.41421;"><g id="S"><path d="M172.22,294.013l-11.623,22.131c0,0 -21.746,-17.653 -54.294,8.54c-12.01,9.666 -6.404,35.238 1.028,43.648c20.985,23.749 41.005,39.599 54.993,53.175c24.013,23.304 32.836,34.585 43.255,50.402c10.917,16.576 15.609,32.011 13.977,47.775c-2.691,25.986 -20.955,40.383 -39.804,49.141c-55.357,25.725 -109.464,-60.485 -109.464,-60.485l25.655,-15.314c0,0 16.488,26.818 27.354,37.956c11.096,11.375 31.926,20.804 43.814,18.197c19.697,-4.32 30.043,-23.202 29.021,-33.599c-3.817,-38.852 -30.915,-58.531 -43.146,-72.935c-16.597,-19.546 -40.483,-35.487 -53.126,-51.529c-10.352,-13.134 -21.244,-26.827 -22.734,-44.723c-1.175,-14.123 9.127,-30.305 20.398,-40.277c11.37,-10.059 29.726,-20.224 47.821,-20.079c15.081,0.121 26.875,7.976 26.875,7.976Z" style="fill:#000;stroke-width:1px;stroke:#000;"/></g><g id="P"><path d="M251.447,291.983l-6.468,277.408l29.52,0.192c0,0 -0.455,-51.172 -0.392,-78.289c0.047,-20.279 12.883,-40.167 26.345,-55.332c18.541,-20.885 73.744,-47.314 87.981,-69.103c11.247,-17.215 10.099,-48.621 -2.56,-61.636c-12.66,-13.014 -36.467,-17.484 -73.398,-16.452c-27.379,0.765 -61.028,3.212 -61.028,3.212ZM273.518,444.032l2.321,-131.519c0,0 38.582,-2.669 54.432,-1.996c11.133,0.472 34.283,-0.918 43.113,15.072c5.792,10.487 0.014,27.846 -8.699,38.112c-10.78,12.702 -38.174,32.448 -51.887,41.39c-24.23,15.8 -39.28,38.941 -39.28,38.941Z" style="fill:#000;stroke-width:1px;stroke:#000;"/></g><g id="E"><path d="M429.762,292.762c0.097,-0.734 -3.014,279.498 -3.014,279.498l117,-0.001l-4.647,-27.18l-86.269,4.502l-2.299,-177.291l125.229,-2.69l-1.807,-24.339l-123.533,7.931l-0.131,-40.584l83.338,-0.83l0.49,-25.027c0,0 -104.455,6.746 -104.357,6.011Z" style="fill:#000;stroke-width:1px;stroke:#000;"/></g><g id="A"><path d="M580.192,571.974l89.156,-312.992l70.907,315.405l-26.426,0.651l-6.6,-36.267l-92.559,-2.281l-8.847,37.165l-25.631,-1.681ZM627.064,489.603c-5.392,3.592 -10.536,29.536 -7.962,31.186c2.783,1.783 80.098,2.314 84.009,-0.78c2.683,-2.122 -2.809,-28.011 -5.63,-30.52c-1.974,-1.754 -66.209,-2.689 -70.417,0.114ZM629.414,471.804l63.153,0.832l-24.44,-142.047l-38.713,141.215Z" style="fill:#000;stroke-width:1px;stroke:#000;"/></g><g id="R"><path d="M833.048,411.541c-22.542,0.897 -41.947,0.293 -41.947,0.293l2.346,160.034l-27.227,0l5.573,-285.557c0,0 78.702,-3.372 104.355,3.031c37.114,9.265 41.552,31.846 42.135,51.713c0.653,22.258 -0.998,44.993 -20.92,59.147c-7.814,5.551 -25.553,8.546 -44.342,10.132c5.06,17.533 23.927,82.697 30.705,99.897c5.239,13.292 23.487,71.903 37.1,69.258c13.165,-2.558 21.896,-37.391 21.896,-37.391l12.858,31.236c0,0 -18.928,28.095 -31.576,30.303c-9.247,1.614 -21.978,-7.588 -27.959,-18.572c-10.925,-20.061 -32.349,-64.323 -62.997,-173.524ZM793.642,309.332l-2.15,82.754c0,0 67.365,2.674 85.441,-4.789c20.204,-8.34 24.815,-23.757 24.977,-39.494c0.215,-20.979 -15.588,-32.576 -34.703,-37.832c-18.465,-5.077 -73.565,-0.639 -73.565,-0.639Z" style="fill:#000;stroke-width:1.18px;stroke:#000;"/></g><g id="W"><path d="M1063.6,458.828l-28.312,114.688l-18.77,0.781l-60.347,-287.935l23.529,1.172l47.213,240.69l24.167,-97.89l-34.69,-139.409l27.336,0.358l21.363,99.076l24.683,-99.629l23.79,-0.782l-37.989,137.626l23.684,103.416l44.347,-244.237l25.093,-0.065l-61.849,286.437l-20.333,-0.39l-22.915,-113.907Z" style="fill:#000;stroke-width:1.16px;stroke:#000;"/></g><g id="O"><path d="M1274.72,288.489c-73.481,0.701 -74.529,44.907 -72.698,69.765c4.806,65.255 40.629,79.173 67.453,76.645c84.886,-8 78.876,-58.346 79.574,-79.086c0.838,-24.912 -3.092,-68.005 -74.329,-67.324ZM1274.56,311.332c-47.66,-0.147 -53.887,31.883 -53.41,49.042c1.185,42.698 35.247,53.084 50.676,52.955c46.652,-0.392 53.695,-37.083 53.89,-53.637c0.192,-16.248 6.963,-46.91 -47.985,-48.315c-1.035,-0.026 -2.091,-0.041 -3.171,-0.045Z" style="fill:#000;stroke-width:1.48px;stroke:#000;"/><path d="M1226.73,478.821l0.849,32.521l92.219,3.518l-1.438,-37.344l-91.63,1.305Z" style="fill:#000;stroke-width:1px;stroke:#000;"/></g><g id="L"><path d="M1389.44,288.17l-1.698,283.372l109.881,-0.651l1.958,-32.003l-87.399,6.844l5.084,-260.432l-27.826,2.87Z" style="fill:#000;stroke-width:1px;stroke:#000;"/></g><g id="F"><path d="M1544.49,287.964c0,0 -3.388,286.177 -3.713,284.937c-0.326,-1.239 32.778,-1.041 32.778,-1.041l-0.778,-184.57l119.461,-0.066l-2.805,-27.632l-117.375,1.562l0.195,-48.948l66.737,2.154l-3.388,-27.438l-91.112,1.042Z" style="fill:#000;stroke-width:1px;stroke:#000;"/></g></svg>
